<svg width="92" height="82" viewBox="0 0 92 82" fill="none" xmlns="http://www.w3.org/2000/svg">
<path d="M1.95217 69.0826C-1.13555 74.416 2.71292 81.0909 8.87558 81.0909H83.1244C89.2871 81.0909 93.1355 74.416 90.0478 69.0826L52.9234 4.95862C49.8421 -0.363661 42.1579 -0.363661 39.0766 4.95862L1.95217 69.0826ZM50.6364 62.5455C50.6364 65.106 48.5606 67.1818 46 67.1818C43.4394 67.1818 41.3636 65.106 41.3636 62.5455C41.3636 59.9849 43.4394 57.9091 46 57.9091C48.5606 57.9091 50.6364 59.9849 50.6364 62.5455ZM50.6364 44C50.6364 46.5606 48.5606 48.6364 46 48.6364C43.4394 48.6364 41.3636 46.5606 41.3636 44V34.7273C41.3636 32.1667 43.4394 30.0909 46 30.0909C48.5606 30.0909 50.6364 32.1667 50.6364 34.7273V44Z" fill="#D94036"/>
</svg>
