<svg width="88" height="88" viewBox="0 0 88 88" fill="none" xmlns="http://www.w3.org/2000/svg">
<path fill-rule="evenodd" clip-rule="evenodd" d="M44 88C68.3005 88 88 68.3005 88 44C88 19.6995 68.3005 0 44 0C19.6995 0 0 19.6995 0 44C0 68.3005 19.6995 88 44 88ZM59.5564 28.4437C61.2747 26.7253 64.0606 26.7253 65.7789 28.4437C67.4972 30.162 67.4972 32.9479 65.7789 34.6662L40.9051 59.54L40.8888 59.5564C40.4444 60.0008 39.9286 60.3302 39.3783 60.5448C38.5987 60.8487 37.75 60.9219 36.9371 60.7645C36.1051 60.6034 35.3106 60.2007 34.6662 59.5564L34.6495 59.5396L22.2212 47.1113C20.5029 45.393 20.5029 42.607 22.2212 40.8887C23.9395 39.1704 26.7255 39.1704 28.4438 40.8887L37.7775 50.2225L59.5564 28.4437Z" fill="#1DBC10"/>
</svg>
