<svg width="16" height="16" viewBox="0 0 16 16" fill="none" xmlns="http://www.w3.org/2000/svg">
<path fill-rule="evenodd" clip-rule="evenodd" d="M8 0.5C12.1421 0.5 15.5 3.85786 15.5 8C15.5 12.1421 12.1421 15.5 8 15.5C3.85786 15.5 0.5 12.1421 0.5 8C0.5 3.85786 3.85786 0.5 8 0.5ZM7.99996 1.99996C4.68625 1.99996 1.99996 4.68625 1.99996 7.99996C1.99996 11.3137 4.68625 14 7.99996 14C11.3137 14 14 11.3137 14 7.99996C14 4.68625 11.3137 1.99996 7.99996 1.99996ZM8 11C8.41421 11 8.75 11.3357 8.75 11.75C8.75 12.1642 8.41421 12.5 8 12.5C7.58579 12.5 7.25 12.1642 7.25 11.75C7.25 11.3357 7.58579 11 8 11ZM8 3.50004C9.65685 3.50004 11 4.84319 11 6.50004C11 7.84615 10.1134 8.98518 8.89235 9.36509L8.75 9.40553V9.50004C8.75 9.91425 8.41421 10.25 8 10.25C7.61537 10.25 7.29837 9.96051 7.25505 9.58751L7.25 9.50004V8.75004C7.25 8.36541 7.53953 8.04841 7.91253 8.00509L8.11195 7.99593C8.88809 7.93866 9.5 7.29081 9.5 6.50004C9.5 5.67161 8.82843 5.00004 8 5.00004C7.17157 5.00004 6.5 5.67161 6.5 6.50004C6.5 6.91425 6.16421 7.25004 5.75 7.25004C5.33579 7.25004 5 6.91425 5 6.50004C5 4.84319 6.34315 3.50004 8 3.50004Z" fill="#D94036"/>
</svg>
